<?xml version="1.0" encoding="UTF-8" standalone="no"?>
<!-- Created with Inkscape (http://www.inkscape.org/) -->

<svg
   xmlns:dc="http://purl.org/dc/elements/1.1/"
   xmlns:cc="http://creativecommons.org/ns#"
   xmlns:rdf="http://www.w3.org/1999/02/22-rdf-syntax-ns#"
   xmlns:svg="http://www.w3.org/2000/svg"
   xmlns="http://www.w3.org/2000/svg"
   xmlns:sodipodi="http://sodipodi.sourceforge.net/DTD/sodipodi-0.dtd"
   xmlns:inkscape="http://www.inkscape.org/namespaces/inkscape"
   width="574.01184"
   height="514.8197"
   id="svg3755"
   version="1.1"
   inkscape:version="0.48.3.1 r9886"
   sodipodi:docname="people.svg"
   inkscape:export-filename="/home/robin/Work/Projects/tenjin/faces/web/assets/images/people.png"
   inkscape:export-xdpi="75"
   inkscape:export-ydpi="75">
  <defs
     id="defs3757" />
  <sodipodi:namedview
     id="base"
     pagecolor="#ffffff"
     bordercolor="#666666"
     borderopacity="1.0"
     inkscape:pageopacity="0.0"
     inkscape:pageshadow="2"
     inkscape:zoom="0.25"
     inkscape:cx="-261.4644"
     inkscape:cy="476.99275"
     inkscape:document-units="px"
     inkscape:current-layer="layer2"
     showgrid="false"
     inkscape:snap-grids="true"
     inkscape:snap-page="false"
     inkscape:snap-to-guides="false"
     inkscape:window-width="1301"
     inkscape:window-height="743"
     inkscape:window-x="65"
     inkscape:window-y="24"
     inkscape:window-maximized="1"
     fit-margin-top="0"
     fit-margin-left="0"
     fit-margin-right="0"
     fit-margin-bottom="0" />
  <metadata
     id="metadata3760">
    <rdf:RDF>
      <cc:Work
         rdf:about="">
        <dc:format>image/svg+xml</dc:format>
        <dc:type
           rdf:resource="http://purl.org/dc/dcmitype/StillImage" />
        <dc:title></dc:title>
      </cc:Work>
    </rdf:RDF>
  </metadata>
  <g
     inkscape:label="Layer 1"
     inkscape:groupmode="layer"
     id="layer1"
     transform="translate(-72.988177,-168.28568)">
    <g
       id="use4427"
       transform="translate(-143,-13)">
      <path
         style="fill:#000000;fill-opacity:1;stroke:#ffffff;stroke-width:8;stroke-linejoin:round;stroke-miterlimit:4;stroke-opacity:1;stroke-dasharray:none"
         d="m 357.54537,407.68683 c -40.61669,0 -73.54302,-32.92633 -73.54302,-73.54301 0,-40.6167 32.92633,-73.54302 73.54302,-73.54302 40.55831,0 73.46042,32.83528 73.50171,73.49749 0.0413,40.66221 -32.88502,73.58854 -73.50171,73.58854 z"
         id="path4437"
         inkscape:connector-curvature="0"
         sodipodi:nodetypes="ssscs" />
      <path
         style="fill:#000000;fill-opacity:1;stroke:#ffffff;stroke-width:8;stroke-linecap:butt;stroke-linejoin:miter;stroke-miterlimit:4;stroke-opacity:1;stroke-dasharray:none"
         d="m 220,574.36218 c 44.31802,-131.6635 33.94536,-167.64451 140,-166 106.05464,1.64451 89.27516,32.99613 130,166 0,0 -52.20881,50.32644 -130,50 -77.79119,-0.32644 -141.00513,-47.24279 -140,-50 z"
         id="path4439"
         inkscape:connector-curvature="0"
         sodipodi:nodetypes="czczc" />
    </g>
    <g
       transform="translate(153,-13)"
       id="g4441">
      <path
         sodipodi:nodetypes="ssscs"
         inkscape:connector-curvature="0"
         id="path4443"
         d="m 357.54537,407.68683 c -40.61669,0 -73.54302,-32.92633 -73.54302,-73.54301 0,-40.6167 32.92633,-73.54302 73.54302,-73.54302 40.55831,0 73.46042,32.83528 73.50171,73.49749 0.0413,40.66221 -32.88502,73.58854 -73.50171,73.58854 z"
         style="fill:#000000;fill-opacity:1;stroke:#ffffff;stroke-width:8;stroke-linejoin:round;stroke-miterlimit:4;stroke-opacity:1;stroke-dasharray:none" />
      <path
         sodipodi:nodetypes="czczc"
         inkscape:connector-curvature="0"
         id="path4445"
         d="m 220,574.36218 c 44.31802,-131.6635 33.94536,-167.64451 140,-166 106.05464,1.64451 89.27516,32.99613 130,166 0,0 -52.20881,50.32644 -130,50 -77.79119,-0.32644 -141.00513,-47.24279 -140,-50 z"
         style="fill:#000000;fill-opacity:1;stroke:#ffffff;stroke-width:8;stroke-linecap:butt;stroke-linejoin:miter;stroke-miterlimit:4;stroke-opacity:1;stroke-dasharray:none" />
    </g>
  </g>
  <g
     inkscape:groupmode="layer"
     id="layer2"
     inkscape:label="Fore"
     transform="translate(-72.988177,-168.28568)">
    <g
       id="g4409"
       transform="matrix(1.401554,0,0,1.3846247,-138.7338,-186.97637)">
      <path
         sodipodi:nodetypes="ssscs"
         inkscape:connector-curvature="0"
         id="path4273"
         d="m 357.54537,407.68683 c -40.61669,0 -73.54302,-32.92633 -73.54302,-73.54301 0,-40.6167 32.92633,-73.54302 73.54302,-73.54302 40.55831,0 73.46042,32.83528 73.50171,73.49749 0.0413,40.66221 -32.88502,73.58854 -73.50171,73.58854 z"
         style="fill:#000000;fill-opacity:1;stroke:#ffffff;stroke-width:8;stroke-linejoin:round;stroke-miterlimit:4;stroke-opacity:1;stroke-dasharray:none" />
      <path
         sodipodi:nodetypes="czczc"
         inkscape:connector-curvature="0"
         id="path4361"
         d="m 220,574.36218 c 44.31802,-131.6635 33.94536,-167.64451 140,-166 106.05464,1.64451 89.27516,32.99613 130,166 0,0 -52.20881,50.32644 -130,50 -77.79119,-0.32644 -141.00513,-47.24279 -140,-50 z"
         style="fill:#000000;fill-opacity:1;stroke:#ffffff;stroke-width:8;stroke-linecap:butt;stroke-linejoin:miter;stroke-miterlimit:4;stroke-opacity:1;stroke-dasharray:none" />
    </g>
  </g>
</svg>
